<mxfile host="app.diagrams.net" modified="2023-05-19T18:42:17.874Z" agent="Mozilla/5.0 (Windows NT 10.0; Win64; x64) AppleWebKit/537.36 (KHTML, like Gecko) Chrome/110.0.0.0 Safari/537.36" etag="QZ7X61GiH9IIiAFmG-mE" version="21.3.2" type="github">
  <diagram name="PÃ¡gina-1" id="0Hn8TfljZwWxdnF6DUkm">
    <mxGraphModel dx="1122" dy="725" grid="1" gridSize="10" guides="1" tooltips="1" connect="1" arrows="1" fold="1" page="1" pageScale="1" pageWidth="827" pageHeight="1169" math="0" shadow="0">
      <root>
        <mxCell id="0" />
        <mxCell id="1" parent="0" />
        <mxCell id="utqlpFQej-7Dy-AqB1Q6-6" value="Alumnos" style="rounded=0;whiteSpace=wrap;html=1;fillColor=#d5e8d4;strokeColor=#82b366;" vertex="1" parent="1">
          <mxGeometry x="50" y="152.5" width="120" height="60" as="geometry" />
        </mxCell>
        <mxCell id="utqlpFQej-7Dy-AqB1Q6-8" value="Asignaturas" style="rounded=0;whiteSpace=wrap;html=1;fillColor=#d5e8d4;strokeColor=#82b366;" vertex="1" parent="1">
          <mxGeometry x="340" y="152.5" width="120" height="60" as="geometry" />
        </mxCell>
        <mxCell id="utqlpFQej-7Dy-AqB1Q6-10" value="se matriculan" style="rhombus;whiteSpace=wrap;html=1;fillColor=#dae8fc;strokeColor=#6c8ebf;" vertex="1" parent="1">
          <mxGeometry x="210" y="142.5" width="80" height="80" as="geometry" />
        </mxCell>
        <mxCell id="utqlpFQej-7Dy-AqB1Q6-14" value="" style="endArrow=none;html=1;rounded=0;entryX=0;entryY=0.5;entryDx=0;entryDy=0;exitX=1;exitY=0.5;exitDx=0;exitDy=0;" edge="1" parent="1" source="utqlpFQej-7Dy-AqB1Q6-6" target="utqlpFQej-7Dy-AqB1Q6-10">
          <mxGeometry width="50" height="50" relative="1" as="geometry">
            <mxPoint x="170" y="190" as="sourcePoint" />
            <mxPoint x="220" y="140" as="targetPoint" />
          </mxGeometry>
        </mxCell>
        <mxCell id="utqlpFQej-7Dy-AqB1Q6-16" value="" style="endArrow=none;html=1;rounded=0;" edge="1" parent="1">
          <mxGeometry width="50" height="50" relative="1" as="geometry">
            <mxPoint x="290" y="182.20999999999998" as="sourcePoint" />
            <mxPoint x="340" y="182" as="targetPoint" />
            <Array as="points" />
          </mxGeometry>
        </mxCell>
        <mxCell id="utqlpFQej-7Dy-AqB1Q6-17" value="Profesores" style="rounded=0;whiteSpace=wrap;html=1;fillColor=#d5e8d4;strokeColor=#82b366;" vertex="1" parent="1">
          <mxGeometry x="650" y="152.5" width="120" height="60" as="geometry" />
        </mxCell>
        <mxCell id="utqlpFQej-7Dy-AqB1Q6-18" value="La imparten" style="rhombus;whiteSpace=wrap;html=1;fillColor=#dae8fc;strokeColor=#6c8ebf;" vertex="1" parent="1">
          <mxGeometry x="520" y="142.5" width="80" height="80" as="geometry" />
        </mxCell>
        <mxCell id="utqlpFQej-7Dy-AqB1Q6-19" value="" style="endArrow=none;html=1;rounded=0;exitX=1;exitY=0.5;exitDx=0;exitDy=0;entryX=0;entryY=0.5;entryDx=0;entryDy=0;" edge="1" parent="1" source="utqlpFQej-7Dy-AqB1Q6-8" target="utqlpFQej-7Dy-AqB1Q6-18">
          <mxGeometry width="50" height="50" relative="1" as="geometry">
            <mxPoint x="470" y="182.16" as="sourcePoint" />
            <mxPoint x="530" y="182.16" as="targetPoint" />
          </mxGeometry>
        </mxCell>
        <mxCell id="utqlpFQej-7Dy-AqB1Q6-20" value="" style="endArrow=none;html=1;rounded=0;" edge="1" parent="1">
          <mxGeometry width="50" height="50" relative="1" as="geometry">
            <mxPoint x="600" y="182.16" as="sourcePoint" />
            <mxPoint x="650" y="182.16" as="targetPoint" />
          </mxGeometry>
        </mxCell>
        <mxCell id="utqlpFQej-7Dy-AqB1Q6-30" value="" style="endArrow=none;html=1;rounded=0;" edge="1" parent="1">
          <mxGeometry width="50" height="50" relative="1" as="geometry">
            <mxPoint x="20" y="200" as="sourcePoint" />
            <mxPoint x="50" y="200" as="targetPoint" />
            <Array as="points" />
          </mxGeometry>
        </mxCell>
        <mxCell id="utqlpFQej-7Dy-AqB1Q6-31" value="" style="endArrow=none;html=1;rounded=0;" edge="1" parent="1">
          <mxGeometry width="50" height="50" relative="1" as="geometry">
            <mxPoint x="20" y="330" as="sourcePoint" />
            <mxPoint x="20" y="200" as="targetPoint" />
          </mxGeometry>
        </mxCell>
        <mxCell id="utqlpFQej-7Dy-AqB1Q6-32" value="" style="endArrow=none;html=1;rounded=0;" edge="1" parent="1">
          <mxGeometry width="50" height="50" relative="1" as="geometry">
            <mxPoint x="20" y="240" as="sourcePoint" />
            <mxPoint x="50" y="240" as="targetPoint" />
            <Array as="points">
              <mxPoint x="40" y="240" />
            </Array>
          </mxGeometry>
        </mxCell>
        <mxCell id="utqlpFQej-7Dy-AqB1Q6-33" value="" style="endArrow=none;html=1;rounded=0;" edge="1" parent="1">
          <mxGeometry width="50" height="50" relative="1" as="geometry">
            <mxPoint x="20" y="270" as="sourcePoint" />
            <mxPoint x="50" y="270" as="targetPoint" />
            <Array as="points">
              <mxPoint x="40" y="270" />
            </Array>
          </mxGeometry>
        </mxCell>
        <mxCell id="utqlpFQej-7Dy-AqB1Q6-34" value="" style="endArrow=none;html=1;rounded=0;" edge="1" parent="1">
          <mxGeometry width="50" height="50" relative="1" as="geometry">
            <mxPoint x="20" y="300" as="sourcePoint" />
            <mxPoint x="50" y="300" as="targetPoint" />
            <Array as="points">
              <mxPoint x="40" y="300" />
            </Array>
          </mxGeometry>
        </mxCell>
        <mxCell id="utqlpFQej-7Dy-AqB1Q6-35" value="" style="endArrow=none;html=1;rounded=0;" edge="1" parent="1">
          <mxGeometry width="50" height="50" relative="1" as="geometry">
            <mxPoint x="20" y="330" as="sourcePoint" />
            <mxPoint x="50" y="330" as="targetPoint" />
            <Array as="points">
              <mxPoint x="40" y="330" />
            </Array>
          </mxGeometry>
        </mxCell>
        <mxCell id="utqlpFQej-7Dy-AqB1Q6-36" value="&lt;font color=&quot;#57af55&quot;&gt;Num_de_matricula&lt;/font&gt;" style="text;html=1;strokeColor=none;fillColor=none;align=center;verticalAlign=middle;whiteSpace=wrap;rounded=0;" vertex="1" parent="1">
          <mxGeometry x="40" y="222.5" width="130" height="30" as="geometry" />
        </mxCell>
        <mxCell id="utqlpFQej-7Dy-AqB1Q6-37" value="&lt;font color=&quot;#cf3030&quot;&gt;Nombre&lt;/font&gt;" style="text;html=1;strokeColor=none;fillColor=none;align=center;verticalAlign=middle;whiteSpace=wrap;rounded=0;" vertex="1" parent="1">
          <mxGeometry x="40" y="252.5" width="80" height="30" as="geometry" />
        </mxCell>
        <mxCell id="utqlpFQej-7Dy-AqB1Q6-38" value="Fecha_de_nacimiento" style="text;html=1;strokeColor=none;fillColor=none;align=center;verticalAlign=middle;whiteSpace=wrap;rounded=0;" vertex="1" parent="1">
          <mxGeometry x="40" y="282.5" width="140" height="30" as="geometry" />
        </mxCell>
        <mxCell id="utqlpFQej-7Dy-AqB1Q6-39" value="Telefono" style="text;html=1;strokeColor=none;fillColor=none;align=center;verticalAlign=middle;whiteSpace=wrap;rounded=0;" vertex="1" parent="1">
          <mxGeometry x="50" y="312.5" width="60" height="30" as="geometry" />
        </mxCell>
        <mxCell id="utqlpFQej-7Dy-AqB1Q6-40" value="" style="endArrow=none;html=1;rounded=0;" edge="1" parent="1">
          <mxGeometry width="50" height="50" relative="1" as="geometry">
            <mxPoint x="340" y="250" as="sourcePoint" />
            <mxPoint x="340" y="212.5" as="targetPoint" />
          </mxGeometry>
        </mxCell>
        <mxCell id="utqlpFQej-7Dy-AqB1Q6-41" value="" style="endArrow=none;html=1;rounded=0;" edge="1" parent="1">
          <mxGeometry width="50" height="50" relative="1" as="geometry">
            <mxPoint x="340" y="237.26" as="sourcePoint" />
            <mxPoint x="370" y="237.26" as="targetPoint" />
            <Array as="points">
              <mxPoint x="360" y="237.26" />
            </Array>
          </mxGeometry>
        </mxCell>
        <mxCell id="utqlpFQej-7Dy-AqB1Q6-42" value="" style="endArrow=none;html=1;rounded=0;" edge="1" parent="1">
          <mxGeometry width="50" height="50" relative="1" as="geometry">
            <mxPoint x="340" y="260" as="sourcePoint" />
            <mxPoint x="340" y="245" as="targetPoint" />
          </mxGeometry>
        </mxCell>
        <mxCell id="utqlpFQej-7Dy-AqB1Q6-43" value="" style="endArrow=none;html=1;rounded=0;" edge="1" parent="1">
          <mxGeometry width="50" height="50" relative="1" as="geometry">
            <mxPoint x="340" y="260" as="sourcePoint" />
            <mxPoint x="370" y="260" as="targetPoint" />
            <Array as="points">
              <mxPoint x="360" y="260" />
            </Array>
          </mxGeometry>
        </mxCell>
        <mxCell id="utqlpFQej-7Dy-AqB1Q6-44" value="&lt;font color=&quot;#57af55&quot;&gt;Codigo_de_aginatura&lt;/font&gt;" style="text;html=1;strokeColor=none;fillColor=none;align=center;verticalAlign=middle;whiteSpace=wrap;rounded=0;" vertex="1" parent="1">
          <mxGeometry x="370" y="222.5" width="120" height="27.5" as="geometry" />
        </mxCell>
        <mxCell id="utqlpFQej-7Dy-AqB1Q6-45" value="&lt;font color=&quot;#cf3030&quot;&gt;Nombre&lt;/font&gt;" style="text;html=1;strokeColor=none;fillColor=none;align=center;verticalAlign=middle;whiteSpace=wrap;rounded=0;" vertex="1" parent="1">
          <mxGeometry x="340" y="250" width="120" height="27.5" as="geometry" />
        </mxCell>
        <mxCell id="utqlpFQej-7Dy-AqB1Q6-46" value="" style="endArrow=none;html=1;rounded=0;" edge="1" parent="1">
          <mxGeometry width="50" height="50" relative="1" as="geometry">
            <mxPoint x="650" y="250" as="sourcePoint" />
            <mxPoint x="650" y="212.5" as="targetPoint" />
          </mxGeometry>
        </mxCell>
        <mxCell id="utqlpFQej-7Dy-AqB1Q6-47" value="" style="endArrow=none;html=1;rounded=0;" edge="1" parent="1">
          <mxGeometry width="50" height="50" relative="1" as="geometry">
            <mxPoint x="650" y="230" as="sourcePoint" />
            <mxPoint x="680" y="230" as="targetPoint" />
            <Array as="points">
              <mxPoint x="670" y="230" />
            </Array>
          </mxGeometry>
        </mxCell>
        <mxCell id="utqlpFQej-7Dy-AqB1Q6-48" value="" style="endArrow=none;html=1;rounded=0;" edge="1" parent="1">
          <mxGeometry width="50" height="50" relative="1" as="geometry">
            <mxPoint x="650" y="259.6" as="sourcePoint" />
            <mxPoint x="680" y="259.6" as="targetPoint" />
            <Array as="points">
              <mxPoint x="670" y="259.6" />
            </Array>
          </mxGeometry>
        </mxCell>
        <mxCell id="utqlpFQej-7Dy-AqB1Q6-49" value="" style="endArrow=none;html=1;rounded=0;" edge="1" parent="1">
          <mxGeometry width="50" height="50" relative="1" as="geometry">
            <mxPoint x="650" y="286.25" as="sourcePoint" />
            <mxPoint x="650" y="248.75" as="targetPoint" />
          </mxGeometry>
        </mxCell>
        <mxCell id="utqlpFQej-7Dy-AqB1Q6-50" value="" style="endArrow=none;html=1;rounded=0;" edge="1" parent="1">
          <mxGeometry width="50" height="50" relative="1" as="geometry">
            <mxPoint x="650" y="282.5" as="sourcePoint" />
            <mxPoint x="680" y="282.5" as="targetPoint" />
            <Array as="points">
              <mxPoint x="670" y="282.5" />
            </Array>
          </mxGeometry>
        </mxCell>
        <mxCell id="utqlpFQej-7Dy-AqB1Q6-51" value="" style="endArrow=none;html=1;rounded=0;" edge="1" parent="1">
          <mxGeometry width="50" height="50" relative="1" as="geometry">
            <mxPoint x="650" y="310" as="sourcePoint" />
            <mxPoint x="680" y="310" as="targetPoint" />
            <Array as="points" />
          </mxGeometry>
        </mxCell>
        <mxCell id="utqlpFQej-7Dy-AqB1Q6-52" value="" style="endArrow=none;html=1;rounded=0;" edge="1" parent="1">
          <mxGeometry width="50" height="50" relative="1" as="geometry">
            <mxPoint x="650" y="310" as="sourcePoint" />
            <mxPoint x="650" y="282.5" as="targetPoint" />
          </mxGeometry>
        </mxCell>
        <mxCell id="utqlpFQej-7Dy-AqB1Q6-53" value="" style="endArrow=none;html=1;rounded=0;" edge="1" parent="1">
          <mxGeometry width="50" height="50" relative="1" as="geometry">
            <mxPoint x="650" y="340.00000000000006" as="sourcePoint" />
            <mxPoint x="680" y="340.00000000000006" as="targetPoint" />
            <Array as="points">
              <mxPoint x="670" y="340.00000000000006" />
            </Array>
          </mxGeometry>
        </mxCell>
        <mxCell id="utqlpFQej-7Dy-AqB1Q6-54" value="&lt;font color=&quot;#57af55&quot;&gt;Id_p&lt;/font&gt;" style="text;html=1;strokeColor=none;fillColor=none;align=center;verticalAlign=middle;whiteSpace=wrap;rounded=0;" vertex="1" parent="1">
          <mxGeometry x="680" y="212.5" width="60" height="30" as="geometry" />
        </mxCell>
        <mxCell id="utqlpFQej-7Dy-AqB1Q6-55" value="&lt;font color=&quot;#cf3030&quot;&gt;Nombre&lt;/font&gt;" style="text;html=1;strokeColor=none;fillColor=none;align=center;verticalAlign=middle;whiteSpace=wrap;rounded=0;" vertex="1" parent="1">
          <mxGeometry x="680" y="270" width="50" height="30" as="geometry" />
        </mxCell>
        <mxCell id="utqlpFQej-7Dy-AqB1Q6-56" value="Nif_p" style="text;html=1;strokeColor=none;fillColor=none;align=center;verticalAlign=middle;whiteSpace=wrap;rounded=0;" vertex="1" parent="1">
          <mxGeometry x="670" y="242.5" width="60" height="30" as="geometry" />
        </mxCell>
        <mxCell id="utqlpFQej-7Dy-AqB1Q6-57" value="" style="endArrow=none;html=1;rounded=0;" edge="1" parent="1">
          <mxGeometry width="50" height="50" relative="1" as="geometry">
            <mxPoint x="650" y="340" as="sourcePoint" />
            <mxPoint x="650" y="300" as="targetPoint" />
          </mxGeometry>
        </mxCell>
        <mxCell id="utqlpFQej-7Dy-AqB1Q6-58" value="Espectador" style="text;html=1;strokeColor=none;fillColor=none;align=center;verticalAlign=middle;whiteSpace=wrap;rounded=0;" vertex="1" parent="1">
          <mxGeometry x="690" y="290" width="60" height="40" as="geometry" />
        </mxCell>
        <mxCell id="utqlpFQej-7Dy-AqB1Q6-59" value="TelÃ©fono" style="text;html=1;strokeColor=none;fillColor=none;align=center;verticalAlign=middle;whiteSpace=wrap;rounded=0;" vertex="1" parent="1">
          <mxGeometry x="690" y="320" width="60" height="40" as="geometry" />
        </mxCell>
        <mxCell id="utqlpFQej-7Dy-AqB1Q6-60" value="&lt;b&gt;2)&lt;/b&gt;" style="text;html=1;align=center;verticalAlign=middle;resizable=0;points=[];autosize=1;strokeColor=none;fillColor=none;" vertex="1" parent="1">
          <mxGeometry x="30" y="60" width="30" height="30" as="geometry" />
        </mxCell>
        <mxCell id="utqlpFQej-7Dy-AqB1Q6-61" value="&lt;b&gt;3)&lt;/b&gt;" style="text;html=1;align=center;verticalAlign=middle;resizable=0;points=[];autosize=1;strokeColor=none;fillColor=none;" vertex="1" parent="1">
          <mxGeometry x="55" y="398" width="30" height="30" as="geometry" />
        </mxCell>
      </root>
    </mxGraphModel>
  </diagram>
</mxfile>
